<?xml version="1.0" encoding="utf-8"?>
<!-- Generator: Adobe Illustrator 22.1.0, SVG Export Plug-In . SVG Version: 6.00 Build 0)  -->
<svg version="1.1" id="Logo" xmlns="http://www.w3.org/2000/svg" xmlns:xlink="http://www.w3.org/1999/xlink" x="0px" y="0px"
	 viewBox="0 0 1006 181" style="enable-background:new 0 0 1006 181;" xml:space="preserve">
<style type="text/css">
	.st0{fill:#CD2221;}
	.st1{fill:#264F9E;}
	.st2{fill:#FFFFFF;}
</style>
<polygon class="st0" points="188.3,88.3 97.8,175.2 7.4,88.5 7.4,7.4 188.3,7.4 "/>
<path d="M295.8,111.6c-1.4,5-3.5,8.6-6.3,11c-2.9,2.4-6.9,3.9-12.2,4.6c-2.4,0.3-6.3,0.4-11.6,0.4H211l13.9-50.7L215,60.5h69
	c5.1,0,9.1,0.2,12.1,0.7c4.7,0.7,7.7,2.2,9.1,4.5s1.4,5.9,0.1,10.8L295.8,111.6z M271.8,106l6.6-23.9c0.5-2,0.1-3.3-1.4-3.9
	c-0.8-0.5-2.4-0.7-4.8-0.7h-21.8l-9,32.9h21.8C268.1,110.5,271,109,271.8,106z"/>
<path d="M341.4,75.8h-25.8l4.2-15.3h25.8L341.4,75.8z M327.2,127.5h-25.8l12.9-47h25.8L327.2,127.5z"/>
<path d="M412,127.5h-53.8c-5.2,0-9.2-0.2-11.9-0.5c-4.7-0.7-7.7-2.3-9.2-4.6c-1.4-2.3-1.5-6-0.1-10.8l0.7-2.4
	c1.4-5,3.3-8.4,5.9-10.2c2.3-1.5,6-2.4,11.2-2.7c1.6-0.1,5.6-0.1,12.1-0.1H395c0.6-2.1,0.1-3.4-1.3-4.1c-0.7-0.4-2.4-0.5-5-0.5
	h-43.1l4.4-15.9h50.6c5.2,0,9.1,0.2,11.9,0.7c4.7,0.6,7.8,2.1,9.3,4.5c1.5,2.3,1.5,6,0.2,10.8L412,127.5z M390.7,111.7l1.4-5h-26.6
	c-1.5,0-2.5,0.9-3,2.6c-0.4,1.6,0.1,2.4,1.6,2.4H390.7z"/>
<path d="M532.9,127.5h-25.3l8.6-31.4c0.5-1.9,0-3-1.5-3.4c-0.1,0-1.8,0-5.2,0h-3.7c-3.3,0-4.9,0-5,0c-1.7,0.4-2.9,1.5-3.4,3.4
	l-8.6,31.4h-25.6l8.6-31.3c0.5-1.8-0.1-2.9-1.7-3.3c-0.4-0.2-2-0.3-4.7-0.3h-3.7c-3.2,0-4.9,0-5,0c-1.7,0.4-2.8,1.5-3.4,3.4
	l-8.6,31.4h-25.6l14.3-51.9H459l-0.9,3.4c2.2-2.3,5.7-3.4,10.7-3.4h8.5c6,0,9.8,0.1,11.5,0.4c5,0.7,7.9,2.3,8.5,4.7
	c2.9-3.4,8.1-5.2,15.6-5.2h8.5c5.8,0,10,0.3,12.8,0.8c4.3,0.7,7.1,2.3,8.4,4.7c1.3,2.4,1.3,5.9,0,10.5L532.9,127.5z"/>
<path class="st1" d="M625,111.6c-1.3,4.9-3.4,8.5-6.1,10.8c-2.7,2.4-6.6,3.9-11.6,4.6c-2.9,0.4-7.1,0.5-12.5,0.5H539l4.7-17.1h52.7
	c2.3-0.1,3.7-1.2,4.3-3.2c0.5-2,0.7-3.2,0.6-3.7c-0.1-0.8-1.1-1.2-2.8-1.2h-27.9c-5.9,0-10.8-0.9-14.8-2.7c-5.4-2.4-7.4-6.2-6-11.3
	l3.3-12.1c1.4-5,3.4-8.6,6-10.9c2.7-2.3,6.5-3.8,11.6-4.5c3.5-0.5,7.6-0.7,12.5-0.7h47.2l-4.7,17.2h-44c-2.2,0-3.5,1-4.1,3.1
	c-0.7,2.7-0.7,4.3,0.2,4.7c0.2,0.1,2.2,0.1,5.9,0.1h26.6c5.9,0,10.5,1.2,13.8,3.5c4,2.8,5.3,7,3.8,12.5L625,111.6z"/>
<path class="st1" d="M714.6,91.6l-5.4,19.8c-1.4,5-3.4,8.6-6.1,10.9c-2.7,2.3-6.6,3.8-11.7,4.5c-3.5,0.5-7.6,0.7-12.4,0.7h-27.8
	l-5.2,16.2l-29.4,12.6l23.2-80.7h53.4c5.1,0,8.9,0.2,11.4,0.5c4.9,0.6,8.1,2.1,9.7,4.4C715.9,82.9,716,86.6,714.6,91.6z
	 M684.6,107.1l3-11c0.6-2.3-0.2-3.4-2.5-3.4h-24.4l-4.8,17.6h20.5c3.3,0,5.4-0.1,6.2-0.2C683.4,110,684.1,109,684.6,107.1z"/>
<path class="st1" d="M797,111.6c-1.3,4.9-3.4,8.5-6.2,10.8c-2.8,2.4-6.7,3.9-11.8,4.6c-2.8,0.4-6.9,0.5-12.2,0.5h-30.2
	c-5.3,0-9.3-0.2-12.1-0.5c-4.6-0.7-7.6-2.3-9.1-4.6s-1.5-6-0.2-10.8l5.5-19.9c1.3-4.8,3.4-8.4,6.1-10.8c2.8-2.4,6.6-3.9,11.6-4.5
	c2.9-0.5,7.1-0.7,12.4-0.7H781c4.6,0,8.4,0.2,11.3,0.7c4.9,0.6,8.1,2.1,9.7,4.4c1.6,2.3,1.7,5.9,0.3,10.9L797,111.6z M772.6,107.2
	l3.1-11.1c0.5-1.9,0.1-3-1.4-3.4h-5.2h-19.4c-2.5,0.2-4,1.3-4.6,3.4l-3.1,11.1c-0.4,1.4-0.4,2.2,0,2.6c0.4,0.4,1.3,0.6,2.8,0.7h19.4
	c4.2,0,6.7-0.3,7.3-0.9C771.9,109.2,772.2,108.4,772.6,107.2z"/>
<path class="st1" d="M865.5,92.7h-25.9c-3.2,0-4.9,0-5,0c-1.7,0.4-2.8,1.5-3.4,3.4l-8.6,31.4H797l14.3-51.9h25.6L836,79
	c2-2.3,5.5-3.4,10.7-3.4h23.6L865.5,92.7z"/>
<path class="st1" d="M904.8,127.5h-18.7c-5.1,0-9.2-0.2-12.1-0.7c-4.6-0.7-7.6-2.3-9-4.6s-1.4-5.9-0.1-10.7l14-51h25.6l-4.1,15h12.7
	l-4.7,17.1h-12.7l-4,14.5c-0.4,1.4-0.4,2.2,0,2.6c0.4,0.4,1.3,0.6,2.9,0.7h14.9L904.8,127.5z"/>
<path class="st1" d="M996.6,111.6c-1.4,5-3.4,8.6-6.2,11c-2.8,2.4-6.7,3.8-11.7,4.5c-3.1,0.4-7.1,0.5-12.2,0.5h-55.8l4.7-17.1h53.7
	c2,0,3.1-0.6,3.5-1.8c0.4-1.4-0.4-2-2.4-2h-29c-16.5,0-23.7-3.4-21.8-10.3l1.3-4.7c1.3-4.9,3.4-8.5,6.1-10.8
	c2.7-2.3,6.7-3.8,11.8-4.5c3.1-0.5,7.2-0.7,12.2-0.7h48.8l-4.7,17.1h-45.4c-2.3,0-3.6,0.7-3.9,2c-0.4,1.4,0.6,2,2.8,2h30.5
	c14.6,0,20.8,4.2,18.5,12.5L996.6,111.6z"/>
<path class="st0" d="M151.4,103.3c-2,7.3-5.1,12.7-9.3,16.2s-10.2,5.7-17.9,6.8c-3.6,0.4-9.3,0.6-17.1,0.6H26.5L47,52.5L32.3,28
	h101.8c7.5,0,13.4,0.3,17.9,1c6.9,1.1,11.4,3.3,13.4,6.7c2.1,3.4,2.1,8.7,0.1,15.9L151.4,103.3z M116.1,95.1l9.7-35.1
	c0.8-2.9,0.1-4.9-2-5.8c-1.2-0.7-3.5-1-7.1-1H84.6l-13.3,48.5h32.1C110.6,101.7,114.9,99.5,116.1,95.1z"/>
<path class="st2" d="M153.4,95.9c-2,7.3-5.1,12.7-9.3,16.2s-10.2,5.7-17.9,6.8c-3.6,0.4-9.3,0.6-17.1,0.6H28.5L49,45.1L34.3,20.7
	h101.8c7.5,0,13.4,0.3,17.9,1c6.9,1.1,11.4,3.3,13.4,6.7c2.1,3.4,2.1,8.7,0.1,15.9L153.4,95.9z M118.1,87.8l9.7-35.1
	c0.8-2.9,0.1-4.9-2-5.8c-1.2-0.7-3.5-1-7.1-1H86.6L73.3,94.4h32.1C112.6,94.3,116.9,92.1,118.1,87.8z"/>
</svg>
